<svg width="1319" height="1599" viewBox="0 0 1319 1599" fill="none" xmlns="http://www.w3.org/2000/svg">
<g clip-path="url(#clip0)">
<path fill-rule="evenodd" clip-rule="evenodd" d="M835.817 1599H426.593L1 1223V1066.17L835.817 1599Z" fill="url(#paint0_linear)"/>
<path fill-rule="evenodd" clip-rule="evenodd" d="M1058.3 798L417.147 798.138L1 1104.3V1232L1058.3 798Z" fill="url(#paint1_linear)"/>
<path d="M705 987C732.062 987 754 1008.94 754 1036C754 1063.06 732.062 1085 705 1085C677.938 1085 656 1063.06 656 1036C656 1008.94 677.938 987 705 987Z" stroke="url(#paint2_linear)" stroke-width="17"/>
<path opacity="0.558" d="M1133.62 892.251L1110.99 914.879C1109.82 916.05 1107.92 916.05 1106.75 914.879L1084.12 892.251C1082.95 891.08 1082.95 889.18 1084.12 888.009L1106.75 865.381C1107.92 864.21 1109.82 864.21 1110.99 865.381L1133.62 888.009C1134.79 889.18 1134.79 891.08 1133.62 892.251Z" fill="url(#paint3_linear)"/>
<path opacity="0.503" d="M1318.07 1497.52L1282.72 1532.88C1281.55 1534.05 1279.65 1534.05 1278.48 1532.88L1243.12 1497.52C1241.95 1496.35 1241.95 1494.45 1243.12 1493.28L1278.48 1457.93C1279.65 1456.75 1281.55 1456.75 1282.72 1457.93L1318.07 1493.28C1319.25 1494.45 1319.25 1496.35 1318.07 1497.52Z" fill="url(#paint4_linear)"/>
<path opacity="0.558" d="M956.133 1537.49L937.748 1555.88C936.577 1557.05 934.677 1557.05 933.506 1555.88L915.121 1537.49C913.949 1536.32 913.949 1534.42 915.121 1533.25L933.506 1514.87C934.677 1513.7 936.577 1513.7 937.748 1514.87L956.133 1533.25C957.305 1534.42 957.305 1536.32 956.133 1537.49Z" fill="url(#paint5_linear)"/>
<path opacity="0.558" d="M725.133 1414.49L706.748 1432.88C705.577 1434.05 703.677 1434.05 702.506 1432.88L684.121 1414.49C682.949 1413.32 682.949 1411.42 684.121 1410.25L702.506 1391.87C703.677 1390.7 705.577 1390.7 706.748 1391.87L725.133 1410.25C726.305 1411.42 726.305 1413.32 725.133 1414.49Z" fill="url(#paint6_linear)"/>
<path opacity="0.387" d="M1249.33 993.686L1238.73 1004.29C1238.34 1004.68 1237.7 1004.68 1237.31 1004.29L1226.71 993.686C1226.32 993.295 1226.32 992.662 1226.71 992.271L1237.31 981.665C1237.7 981.274 1238.34 981.274 1238.73 981.665L1249.33 992.271C1249.72 992.662 1249.72 993.295 1249.33 993.686Z" fill="url(#paint7_linear)"/>
<path opacity="0.211" fill-rule="evenodd" clip-rule="evenodd" d="M97.477 861.594L109.144 873.261C110.082 874.199 111.354 874.726 112.68 874.726C114.006 874.726 115.278 874.199 116.215 873.261C117.153 872.324 117.68 871.052 117.68 869.726C117.68 868.4 117.153 867.128 116.215 866.19L104.548 854.523L116.215 842.856C117.153 841.918 117.68 840.646 117.68 839.32C117.68 837.994 117.153 836.723 116.215 835.785C115.278 834.847 114.006 834.32 112.68 834.32C111.354 834.32 110.082 834.847 109.144 835.785L97.477 847.452L85.8097 835.785C84.872 834.847 83.6003 834.32 82.2742 834.32C80.9481 834.32 79.6763 834.847 78.7387 835.785C77.801 836.723 77.2742 837.994 77.2742 839.32C77.2742 840.646 77.801 841.918 78.7387 842.856L90.4059 854.523L78.7387 866.19C77.801 867.128 77.2742 868.4 77.2742 869.726C77.2742 871.052 77.801 872.324 78.7387 873.261C79.6763 874.199 80.9481 874.726 82.2742 874.726C83.6003 874.726 84.872 874.199 85.8097 873.261L97.477 861.594Z" fill="url(#paint8_linear)"/>
</g>
<g clip-path="url(#clip1)">
<path fill-rule="evenodd" clip-rule="evenodd" d="M834.817 0H425.593L0 376V532.83L834.817 0Z" fill="url(#paint9_linear)"/>
<path fill-rule="evenodd" clip-rule="evenodd" d="M1057.3 801L416.147 800.862L0 494.701V367L1057.3 801Z" fill="url(#paint10_linear)"/>
<path d="M704 612C731.062 612 753 590.062 753 563C753 535.938 731.062 514 704 514C676.938 514 655 535.938 655 563C655 590.062 676.938 612 704 612Z" stroke="url(#paint11_linear)" stroke-width="17"/>
<path opacity="0.558" d="M1132.62 706.749L1109.99 684.121C1108.82 682.95 1106.92 682.95 1105.75 684.121L1083.12 706.749C1081.95 707.92 1081.95 709.82 1083.12 710.991L1105.75 733.619C1106.92 734.79 1108.82 734.79 1109.99 733.619L1132.62 710.991C1133.79 709.82 1133.79 707.92 1132.62 706.749Z" fill="url(#paint12_linear)"/>
<path opacity="0.503" d="M1317.07 101.477L1281.72 66.1214C1280.55 64.9498 1278.65 64.9498 1277.48 66.1214L1242.12 101.477C1240.95 102.648 1240.95 104.548 1242.12 105.719L1277.48 141.075C1278.65 142.246 1280.55 142.246 1281.72 141.075L1317.07 105.719C1318.25 104.548 1318.25 102.648 1317.07 101.477Z" fill="url(#paint13_linear)"/>
<path opacity="0.558" d="M955.133 61.5057L936.748 43.1209C935.577 41.9494 933.677 41.9494 932.506 43.1209L914.121 61.5057C912.949 62.6773 912.949 64.5768 914.121 65.7483L932.506 84.1331C933.677 85.3047 935.577 85.3047 936.748 84.1331L955.133 65.7483C956.305 64.5768 956.305 62.6773 955.133 61.5057Z" fill="url(#paint14_linear)"/>
<path opacity="0.558" d="M724.133 184.506L705.748 166.121C704.577 164.949 702.677 164.949 701.506 166.121L683.121 184.506C681.949 185.677 681.949 187.577 683.121 188.748L701.506 207.133C702.677 208.305 704.577 208.305 705.748 207.133L724.133 188.748C725.305 187.577 725.305 185.677 724.133 184.506Z" fill="url(#paint15_linear)"/>
<path opacity="0.387" d="M1248.33 605.314L1237.73 594.708C1237.34 594.317 1236.7 594.317 1236.31 594.708L1225.71 605.314C1225.32 605.705 1225.32 606.338 1225.71 606.729L1236.31 617.335C1236.7 617.726 1237.34 617.726 1237.73 617.335L1248.33 606.729C1248.72 606.338 1248.72 605.705 1248.33 605.314Z" fill="url(#paint16_linear)"/>
<path opacity="0.211" fill-rule="evenodd" clip-rule="evenodd" d="M96.477 737.406L108.144 725.739C109.082 724.801 110.354 724.274 111.68 724.274C113.006 724.274 114.278 724.801 115.215 725.739C116.153 726.676 116.68 727.948 116.68 729.274C116.68 730.6 116.153 731.872 115.215 732.81L103.548 744.477L115.215 756.144C116.153 757.082 116.68 758.354 116.68 759.68C116.68 761.006 116.153 762.278 115.215 763.215C114.278 764.153 113.006 764.68 111.68 764.68C110.354 764.68 109.082 764.153 108.144 763.215L96.477 751.548L84.8097 763.215C83.872 764.153 82.6003 764.68 81.2742 764.68C79.9481 764.68 78.6763 764.153 77.7387 763.215C76.801 762.278 76.2742 761.006 76.2742 759.68C76.2742 758.354 76.801 757.082 77.7387 756.144L89.4059 744.477L77.7387 732.81C76.801 731.872 76.2742 730.6 76.2742 729.274C76.2742 727.948 76.801 726.676 77.7387 725.739C78.6763 724.801 79.9481 724.274 81.2742 724.274C82.6003 724.274 83.872 724.801 84.8097 725.739L96.477 737.406Z" fill="url(#paint17_linear)"/>
</g>
<defs>
<linearGradient id="paint0_linear" x1="1213.57" y1="2068.3" x2="592.17" y2="788.165" gradientUnits="userSpaceOnUse">
<stop stop-color="#FF52C1"/>
<stop offset="0.0409" stop-color="#F952C5"/>
<stop offset="1" stop-color="#9952FF" stop-opacity="0"/>
</linearGradient>
<linearGradient id="paint1_linear" x1="1735.61" y1="268.928" x2="1330.23" y2="1622.95" gradientUnits="userSpaceOnUse">
<stop stop-color="#FF52C1"/>
<stop offset="0.0409" stop-color="#F952C5"/>
<stop offset="1" stop-color="#9952FF" stop-opacity="0"/>
</linearGradient>
<linearGradient id="paint2_linear" x1="754" y1="975.854" x2="631.605" y2="1139.06" gradientUnits="userSpaceOnUse">
<stop stop-color="#FF52C1"/>
<stop offset="1" stop-color="#9952FF"/>
</linearGradient>
<linearGradient id="paint3_linear" x1="1113.35" y1="909.829" x2="1108.94" y2="838.687" gradientUnits="userSpaceOnUse">
<stop stop-color="#FF52C1"/>
<stop offset="1" stop-color="#9952FF"/>
</linearGradient>
<linearGradient id="paint4_linear" x1="1287.2" y1="1524.43" x2="1280.7" y2="1419.59" gradientUnits="userSpaceOnUse">
<stop stop-color="#FF52C1"/>
<stop offset="1" stop-color="#9952FF"/>
</linearGradient>
<linearGradient id="paint5_linear" x1="939.4" y1="1551.96" x2="935.688" y2="1492.05" gradientUnits="userSpaceOnUse">
<stop stop-color="#FF52C1"/>
<stop offset="1" stop-color="#9952FF"/>
</linearGradient>
<linearGradient id="paint6_linear" x1="708.4" y1="1428.96" x2="704.688" y2="1369.05" gradientUnits="userSpaceOnUse">
<stop stop-color="#FF52C1"/>
<stop offset="1" stop-color="#9952FF"/>
</linearGradient>
<linearGradient id="paint7_linear" x1="1240.02" y1="1001.79" x2="1238.05" y2="969.965" gradientUnits="userSpaceOnUse">
<stop stop-color="#FF52C1"/>
<stop offset="1" stop-color="#9952FF"/>
</linearGradient>
<linearGradient id="paint8_linear" x1="105.561" y1="895.305" x2="92.2502" y2="818" gradientUnits="userSpaceOnUse">
<stop stop-color="#FF52C1"/>
<stop offset="1" stop-color="#9952FF"/>
</linearGradient>
<linearGradient id="paint9_linear" x1="1212.57" y1="-469.301" x2="591.17" y2="810.835" gradientUnits="userSpaceOnUse">
<stop stop-color="#FF52C1"/>
<stop offset="0.0409" stop-color="#F952C5"/>
<stop offset="1" stop-color="#9952FF" stop-opacity="0"/>
</linearGradient>
<linearGradient id="paint10_linear" x1="1734.61" y1="1330.07" x2="1329.23" y2="-23.9547" gradientUnits="userSpaceOnUse">
<stop stop-color="#FF52C1"/>
<stop offset="0.0409" stop-color="#F952C5"/>
<stop offset="1" stop-color="#9952FF" stop-opacity="0"/>
</linearGradient>
<linearGradient id="paint11_linear" x1="753" y1="623.146" x2="630.605" y2="459.944" gradientUnits="userSpaceOnUse">
<stop stop-color="#FF52C1"/>
<stop offset="1" stop-color="#9952FF"/>
</linearGradient>
<linearGradient id="paint12_linear" x1="1112.35" y1="689.171" x2="1107.94" y2="760.313" gradientUnits="userSpaceOnUse">
<stop stop-color="#FF52C1"/>
<stop offset="1" stop-color="#9952FF"/>
</linearGradient>
<linearGradient id="paint13_linear" x1="1286.2" y1="74.5675" x2="1279.7" y2="179.409" gradientUnits="userSpaceOnUse">
<stop stop-color="#FF52C1"/>
<stop offset="1" stop-color="#9952FF"/>
</linearGradient>
<linearGradient id="paint14_linear" x1="938.4" y1="47.0382" x2="934.688" y2="106.948" gradientUnits="userSpaceOnUse">
<stop stop-color="#FF52C1"/>
<stop offset="1" stop-color="#9952FF"/>
</linearGradient>
<linearGradient id="paint15_linear" x1="707.4" y1="170.038" x2="703.688" y2="229.948" gradientUnits="userSpaceOnUse">
<stop stop-color="#FF52C1"/>
<stop offset="1" stop-color="#9952FF"/>
</linearGradient>
<linearGradient id="paint16_linear" x1="1239.02" y1="597.209" x2="1237.05" y2="629.036" gradientUnits="userSpaceOnUse">
<stop stop-color="#FF52C1"/>
<stop offset="1" stop-color="#9952FF"/>
</linearGradient>
<linearGradient id="paint17_linear" x1="104.561" y1="703.695" x2="91.2501" y2="781" gradientUnits="userSpaceOnUse">
<stop stop-color="#FF52C1"/>
<stop offset="1" stop-color="#9952FF"/>
</linearGradient>
<clipPath id="clip0">
<rect width="1318" height="800" fill="white" transform="matrix(1 0 0 -1 1 1599)"/>
</clipPath>
<clipPath id="clip1">
<rect width="1318" height="800" fill="white"/>
</clipPath>
</defs>
</svg>
